# xmcd CD database file
#
# Track frame offsets:
#	177
#	28967
#	42707
#	55785
#	71907
#	86367
#	102162
#	115797
#	128370
#	143005
#	157200
#	171867
#	187225
#	201192
#	213227
#
# Disc length: 3034 seconds
#
# Revision: 4
# Processed by: cddbd v1.5.2PL0 Copyright (c) Steve Scherf et al.
# Submitted via: CDex 1.51
#
DISCID=dd0bd80f
DTITLE=Bessie Smith - Great Original Performances 1925-1933
DYEAR=1985
DGENRE=Jazz
TTITLE0=Empty Bed Blues
TTITLE1=Alexander's Ragtime Band
TTITLE2=Preachin' The Blues
TTITLE3=Keep It To Yourself
TTITLE4=Trombone Cholly
TTITLE5=At The Christmas Ball
TTITLE6=Kitchen Man
TTITLE7=You've Got To Give Me some
TTITLE8=He's Got Me Goin'
TTITLE9=Thinking Blues
TTITLE10=Devil's Gonna Git You
TTITLE11=Send Me To The 'Lectric Chair
TTITLE12=Baby Doll
TTITLE13=Take Me For A Buggy Ride
TTITLE14=Young Woman's Blues
EXTD=YEAR: 1985
EXTT0=
EXTT1=
EXTT2=
EXTT3=
EXTT4=
EXTT5=
EXTT6=
EXTT7=
EXTT8=
EXTT9=
EXTT10=
EXTT11=
EXTT12=
EXTT13=
EXTT14=
PLAYORDER=
